<svg width="1103" height="299" viewBox="0 0 1103 299" fill="none" xmlns="http://www.w3.org/2000/svg">
<g clip-path="url(#clip0_143_357)">
<rect width="1103" height="299" rx="24" transform="matrix(-1 0 0 1 1103 0)" fill="#FBFAF6"/>
<g filter="url(#filter0_f_143_357)">
<g filter="url(#filter1_f_143_357)">
<path d="M1323.02 330.294C1335.68 409.396 1202.2 486.639 1024.88 502.82C847.567 519.002 693.566 467.995 680.91 388.893C668.254 309.791 745.449 116.842 922.764 100.66C1002.73 93.3623 1012.92 198.383 1085.86 233.676C1174.66 276.639 1316.08 286.867 1323.02 330.294Z" fill="url(#paint0_radial_143_357)" fill-opacity="0.8"/>
</g>
<g filter="url(#filter2_f_143_357)">
<path d="M864.319 378.698C868.445 404.487 898.947 444.717 859.918 448.278C840.36 450.063 785.885 417.14 760.843 404.009C735.914 390.937 693.248 397.202 691.189 384.336C687.063 358.547 769.331 311.506 808.36 307.944C847.389 304.382 860.193 352.908 864.319 378.698Z" fill="#E3EBED" fill-opacity="0.8"/>
</g>
<g filter="url(#filter3_f_143_357)">
<path d="M1223.99 291.723C1228.71 321.197 1145.49 353.034 1038.11 362.833C930.739 372.632 839.872 356.682 835.157 327.208C830.441 297.734 913.662 265.897 1021.04 256.099C1128.41 246.3 1219.28 262.249 1223.99 291.723Z" fill="url(#paint1_linear_143_357)" fill-opacity="0.9"/>
</g>
<g filter="url(#filter4_f_143_357)">
<path d="M1017.24 300.428C1022.05 330.507 991.345 358.05 948.658 361.946C905.971 365.841 867.465 344.615 862.652 314.535C857.84 284.455 888.543 256.912 931.23 253.017C973.917 249.121 1012.42 270.348 1017.24 300.428Z" fill="#DE6852" fill-opacity="0.6"/>
</g>
</g>
<g filter="url(#filter5_f_143_357)">
<g filter="url(#filter6_f_143_357)">
<path d="M645.085 368.331C657.741 447.433 524.258 524.676 346.943 540.857C169.629 557.039 15.6271 506.032 2.97132 426.93C-9.68449 347.828 67.5106 154.879 244.825 138.697C324.794 131.399 334.98 236.42 407.924 271.713C496.719 314.676 638.137 324.904 645.085 368.331Z" fill="url(#paint2_radial_143_357)" fill-opacity="0.8"/>
</g>
<g filter="url(#filter7_f_143_357)">
<path d="M186.381 416.735C190.507 442.524 221.009 482.753 181.98 486.315C162.421 488.1 107.947 455.177 82.9045 442.046C57.9757 428.974 15.3092 435.239 13.2508 422.373C9.12471 396.584 91.3925 349.543 130.421 345.981C169.45 342.419 182.255 390.945 186.381 416.735Z" fill="#E3EBED" fill-opacity="0.8"/>
</g>
<g filter="url(#filter8_f_143_357)">
<path d="M546.053 329.76C550.769 359.234 467.548 391.071 360.174 400.87C252.8 410.669 161.934 394.719 157.218 365.245C152.502 335.771 235.723 303.934 343.097 294.136C450.471 284.337 541.338 300.286 546.053 329.76Z" fill="url(#paint3_linear_143_357)" fill-opacity="0.9"/>
</g>
<g filter="url(#filter9_f_143_357)">
<path d="M339.297 338.465C344.109 368.544 313.406 396.087 270.719 399.983C228.033 403.878 189.527 382.652 184.714 352.572C179.901 322.492 210.605 294.949 253.291 291.054C295.978 287.158 334.484 308.385 339.297 338.465Z" fill="#DE6852" fill-opacity="0.6"/>
</g>
</g>
<g opacity="0.8" filter="url(#filter10_f_143_357)">
<g filter="url(#filter11_f_143_357)">
<path d="M-73.7723 317.244C-80.8722 151.753 -5.98844 -9.84793 93.4853 -43.7019C192.959 -77.556 279.354 29.1568 286.454 194.647C293.554 360.138 250.247 763.811 150.774 797.665C105.911 812.933 100.197 593.218 59.2752 519.38C9.46085 429.497 -69.8744 408.098 -73.7723 317.244Z" fill="url(#paint4_radial_143_357)" fill-opacity="0.8"/>
</g>
<g filter="url(#filter12_f_143_357)">
<path d="M-188.994 266.717C-191.64 205.054 -63.2584 242.017 -3.02156 221.517C57.2153 201.016 104.764 179.706 107.409 241.369C110.055 303.031 63.3676 369.638 3.13069 390.138C-57.1062 410.639 -186.349 328.38 -188.994 266.717Z" fill="url(#paint5_linear_143_357)" fill-opacity="0.9"/>
</g>
<g filter="url(#filter13_f_143_357)">
<path d="M90.7604 245.233C86.6105 341.962 120.366 378.425 143.825 386.409C167.284 394.393 189.666 322.451 193.816 225.722C197.966 128.993 182.312 44.1067 158.853 36.1227C135.394 28.1388 94.9103 148.504 90.7604 245.233Z" fill="#F45E42" fill-opacity="0.5"/>
</g>
</g>
<g filter="url(#filter14_b_143_357)">
<rect width="1334" height="653" transform="matrix(-1 0 0 1 1240 -284)" fill="url(#paint6_linear_143_357)" fill-opacity="0.2"/>
</g>
</g>
<defs>
<filter id="filter0_f_143_357" x="579.576" y="0.298096" width="844.277" height="605.517" filterUnits="userSpaceOnUse" color-interpolation-filters="sRGB">
<feFlood flood-opacity="0" result="BackgroundImageFix"/>
<feBlend mode="normal" in="SourceGraphic" in2="BackgroundImageFix" result="shape"/>
<feGaussianBlur stdDeviation="50" result="effect1_foregroundBlur_143_357"/>
</filter>
<filter id="filter1_f_143_357" x="629.576" y="50.2981" width="744.277" height="505.517" filterUnits="userSpaceOnUse" color-interpolation-filters="sRGB">
<feFlood flood-opacity="0" result="BackgroundImageFix"/>
<feBlend mode="normal" in="SourceGraphic" in2="BackgroundImageFix" result="shape"/>
<feGaussianBlur stdDeviation="25" result="effect1_foregroundBlur_143_357"/>
</filter>
<filter id="filter2_f_143_357" x="641.04" y="257.758" width="288.514" height="240.59" filterUnits="userSpaceOnUse" color-interpolation-filters="sRGB">
<feFlood flood-opacity="0" result="BackgroundImageFix"/>
<feBlend mode="normal" in="SourceGraphic" in2="BackgroundImageFix" result="shape"/>
<feGaussianBlur stdDeviation="25" result="effect1_foregroundBlur_143_357"/>
</filter>
<filter id="filter3_f_143_357" x="784.966" y="203.211" width="489.217" height="212.509" filterUnits="userSpaceOnUse" color-interpolation-filters="sRGB">
<feFlood flood-opacity="0" result="BackgroundImageFix"/>
<feBlend mode="normal" in="SourceGraphic" in2="BackgroundImageFix" result="shape"/>
<feGaussianBlur stdDeviation="25" result="effect1_foregroundBlur_143_357"/>
</filter>
<filter id="filter4_f_143_357" x="812.156" y="202.556" width="255.576" height="209.851" filterUnits="userSpaceOnUse" color-interpolation-filters="sRGB">
<feFlood flood-opacity="0" result="BackgroundImageFix"/>
<feBlend mode="normal" in="SourceGraphic" in2="BackgroundImageFix" result="shape"/>
<feGaussianBlur stdDeviation="25" result="effect1_foregroundBlur_143_357"/>
</filter>
<filter id="filter5_f_143_357" x="-98.3623" y="38.3351" width="844.277" height="605.517" filterUnits="userSpaceOnUse" color-interpolation-filters="sRGB">
<feFlood flood-opacity="0" result="BackgroundImageFix"/>
<feBlend mode="normal" in="SourceGraphic" in2="BackgroundImageFix" result="shape"/>
<feGaussianBlur stdDeviation="50" result="effect1_foregroundBlur_143_357"/>
</filter>
<filter id="filter6_f_143_357" x="-48.3623" y="88.3351" width="744.277" height="505.517" filterUnits="userSpaceOnUse" color-interpolation-filters="sRGB">
<feFlood flood-opacity="0" result="BackgroundImageFix"/>
<feBlend mode="normal" in="SourceGraphic" in2="BackgroundImageFix" result="shape"/>
<feGaussianBlur stdDeviation="25" result="effect1_foregroundBlur_143_357"/>
</filter>
<filter id="filter7_f_143_357" x="-36.8984" y="295.795" width="288.514" height="240.59" filterUnits="userSpaceOnUse" color-interpolation-filters="sRGB">
<feFlood flood-opacity="0" result="BackgroundImageFix"/>
<feBlend mode="normal" in="SourceGraphic" in2="BackgroundImageFix" result="shape"/>
<feGaussianBlur stdDeviation="25" result="effect1_foregroundBlur_143_357"/>
</filter>
<filter id="filter8_f_143_357" x="107.027" y="241.248" width="489.217" height="212.509" filterUnits="userSpaceOnUse" color-interpolation-filters="sRGB">
<feFlood flood-opacity="0" result="BackgroundImageFix"/>
<feBlend mode="normal" in="SourceGraphic" in2="BackgroundImageFix" result="shape"/>
<feGaussianBlur stdDeviation="25" result="effect1_foregroundBlur_143_357"/>
</filter>
<filter id="filter9_f_143_357" x="134.218" y="240.593" width="255.576" height="209.851" filterUnits="userSpaceOnUse" color-interpolation-filters="sRGB">
<feFlood flood-opacity="0" result="BackgroundImageFix"/>
<feBlend mode="normal" in="SourceGraphic" in2="BackgroundImageFix" result="shape"/>
<feGaussianBlur stdDeviation="25" result="effect1_foregroundBlur_143_357"/>
</filter>
<filter id="filter10_f_143_357" x="-289.035" y="-149.968" width="676.237" height="1048.39" filterUnits="userSpaceOnUse" color-interpolation-filters="sRGB">
<feFlood flood-opacity="0" result="BackgroundImageFix"/>
<feBlend mode="normal" in="SourceGraphic" in2="BackgroundImageFix" result="shape"/>
<feGaussianBlur stdDeviation="50" result="effect1_foregroundBlur_143_357"/>
</filter>
<filter id="filter11_f_143_357" x="-124.238" y="-99.9679" width="461.44" height="948.391" filterUnits="userSpaceOnUse" color-interpolation-filters="sRGB">
<feFlood flood-opacity="0" result="BackgroundImageFix"/>
<feBlend mode="normal" in="SourceGraphic" in2="BackgroundImageFix" result="shape"/>
<feGaussianBlur stdDeviation="25" result="effect1_foregroundBlur_143_357"/>
</filter>
<filter id="filter12_f_143_357" x="-239.035" y="150.629" width="396.552" height="292.712" filterUnits="userSpaceOnUse" color-interpolation-filters="sRGB">
<feFlood flood-opacity="0" result="BackgroundImageFix"/>
<feBlend mode="normal" in="SourceGraphic" in2="BackgroundImageFix" result="shape"/>
<feGaussianBlur stdDeviation="25" result="effect1_foregroundBlur_143_357"/>
</filter>
<filter id="filter13_f_143_357" x="40.4111" y="-14.2545" width="204.071" height="451.269" filterUnits="userSpaceOnUse" color-interpolation-filters="sRGB">
<feFlood flood-opacity="0" result="BackgroundImageFix"/>
<feBlend mode="normal" in="SourceGraphic" in2="BackgroundImageFix" result="shape"/>
<feGaussianBlur stdDeviation="25" result="effect1_foregroundBlur_143_357"/>
</filter>
<filter id="filter14_b_143_357" x="-194" y="-384" width="1534" height="853" filterUnits="userSpaceOnUse" color-interpolation-filters="sRGB">
<feFlood flood-opacity="0" result="BackgroundImageFix"/>
<feGaussianBlur in="BackgroundImageFix" stdDeviation="50"/>
<feComposite in2="SourceAlpha" operator="in" result="effect1_backgroundBlur_143_357"/>
<feBlend mode="normal" in="SourceGraphic" in2="effect1_backgroundBlur_143_357" result="shape"/>
</filter>
<radialGradient id="paint0_radial_143_357" cx="0" cy="0" r="1" gradientUnits="userSpaceOnUse" gradientTransform="translate(922.06 366.886) rotate(-13.2617) scale(320.83 186.584)">
<stop stop-color="#FFBE58"/>
<stop offset="0.515625" stop-color="#FF0099" stop-opacity="0.35"/>
<stop offset="1" stop-color="#0055FF" stop-opacity="0.17"/>
</radialGradient>
<linearGradient id="paint1_linear_143_357" x1="918.083" y1="240.69" x2="1192.4" y2="335.65" gradientUnits="userSpaceOnUse">
<stop stop-color="#FF6100" stop-opacity="0.15"/>
<stop offset="0.41282" stop-color="#F78570" stop-opacity="0.72"/>
<stop offset="1" stop-color="#AD00FF" stop-opacity="0"/>
</linearGradient>
<radialGradient id="paint2_radial_143_357" cx="0" cy="0" r="1" gradientUnits="userSpaceOnUse" gradientTransform="translate(244.121 404.923) rotate(-13.2617) scale(320.83 186.584)">
<stop stop-color="#FFBE58"/>
<stop offset="0.515625" stop-color="#FF0099" stop-opacity="0.35"/>
<stop offset="1" stop-color="#0055FF" stop-opacity="0.17"/>
</radialGradient>
<linearGradient id="paint3_linear_143_357" x1="240.145" y1="278.727" x2="514.466" y2="373.687" gradientUnits="userSpaceOnUse">
<stop stop-color="#FF6100" stop-opacity="0.15"/>
<stop offset="0.41282" stop-color="#F78570" stop-opacity="0.72"/>
<stop offset="1" stop-color="#AD00FF" stop-opacity="0"/>
</linearGradient>
<radialGradient id="paint4_radial_143_357" cx="0" cy="0" r="1" gradientUnits="userSpaceOnUse" gradientTransform="translate(151.169 240.689) rotate(-159.617) scale(162.944 303.882)">
<stop stop-color="#FFC364" stop-opacity="0.72"/>
<stop offset="0.515625" stop-color="#FF0099" stop-opacity="0.62"/>
<stop offset="0.97709" stop-color="#0256FF" stop-opacity="0.17"/>
</radialGradient>
<linearGradient id="paint5_linear_143_357" x1="60.8874" y1="422.375" x2="-109.976" y2="406.515" gradientUnits="userSpaceOnUse">
<stop stop-color="#FF6100" stop-opacity="0.15"/>
<stop offset="0.41282" stop-color="#FF4646" stop-opacity="0.51"/>
<stop offset="1" stop-color="#AD00FF" stop-opacity="0"/>
</linearGradient>
<linearGradient id="paint6_linear_143_357" x1="1166.71" y1="279" x2="261.294" y2="664.184" gradientUnits="userSpaceOnUse">
<stop stop-color="#E4E4E4"/>
<stop offset="1" stop-color="#E4E4E4" stop-opacity="0"/>
</linearGradient>
<clipPath id="clip0_143_357">
<rect width="1103" height="299" rx="24" transform="matrix(-1 0 0 1 1103 0)" fill="white"/>
</clipPath>
</defs>
</svg>
