<svg width="20" height="20" viewBox="0 0 20 20" fill="none" xmlns="http://www.w3.org/2000/svg">
<path d="M9.10594 12.5056V5.48502C9.10594 4.94724 8.99671 4.48089 8.77823 4.08595C8.56816 3.68262 8.24886 3.37172 7.82031 3.15324C7.39177 2.93477 6.8624 2.82553 6.23219 2.82553C5.64399 2.82553 5.12722 2.92637 4.68187 3.12804C4.24493 3.3297 3.90041 3.59439 3.64833 3.9221C3.40465 4.24981 3.28281 4.60273 3.28281 4.98085H0.951029C0.951029 4.49349 1.07707 4.01033 1.32916 3.53137C1.58124 3.05241 1.94256 2.61967 2.41312 2.23314C2.89208 1.83821 3.46347 1.5273 4.12729 1.30043C4.79951 1.06515 5.54736 0.94751 6.37083 0.94751C7.36236 0.94751 8.23625 1.11557 8.9925 1.45168C9.75716 1.78779 10.3538 2.29616 10.7823 2.97678C11.2192 3.64901 11.4377 4.49349 11.4377 5.51023V11.8627C11.4377 12.3165 11.4755 12.7997 11.5512 13.3122C11.6352 13.8248 11.757 14.2659 11.9167 14.6357V14.8373H9.48407C9.36643 14.5684 9.274 14.2113 9.20678 13.766C9.13955 13.3122 9.10594 12.8921 9.10594 12.5056ZM9.50928 6.56898L9.53449 8.20753H7.1775C6.51368 8.20753 5.92128 8.26214 5.40031 8.37138C4.87934 8.47221 4.44239 8.62767 4.08947 8.83774C3.73656 9.0478 3.46767 9.31249 3.28281 9.6318C3.09794 9.9427 3.00551 10.3082 3.00551 10.7284C3.00551 11.1569 3.10214 11.5476 3.29541 11.9006C3.48867 12.2535 3.77857 12.535 4.1651 12.745C4.56003 12.9467 5.04319 13.0475 5.61458 13.0475C6.32882 13.0475 6.95903 12.8963 7.50521 12.5938C8.05139 12.2913 8.48414 11.9216 8.80344 11.4846C9.13115 11.0477 9.30761 10.6233 9.33282 10.2116L10.3285 11.3334C10.2697 11.6863 10.1101 12.077 9.84959 12.5056C9.5891 12.9341 9.24039 13.3458 8.80344 13.7408C8.3749 14.1273 7.86233 14.4508 7.26573 14.7113C6.67753 14.9634 6.01371 15.0894 5.27427 15.0894C4.34996 15.0894 3.53909 14.9088 2.84166 14.5474C2.15263 14.1861 1.61485 13.703 1.22832 13.098C0.850196 12.4845 0.661133 11.7997 0.661133 11.0435C0.661133 10.3124 0.80398 9.66961 1.08968 9.11503C1.37537 8.55204 1.78711 8.08568 2.32489 7.71596C2.86267 7.33784 3.50968 7.05214 4.26593 6.85888C5.02218 6.66561 5.86666 6.56898 6.79938 6.56898H9.50928Z" fill="black"/>
<path d="M20 18.0842V20H10.0805V18.0842H20ZM19.6345 8.01342L10.6099 20H9.1856V18.2858L18.1472 6.36227H19.6345V8.01342ZM18.6009 6.36227V8.29071H9.28643V6.36227H18.6009Z" fill="black"/>
</svg>
