<svg width="50" height="50" viewBox="0 0 50 50" fill="none" xmlns="http://www.w3.org/2000/svg">
<circle cx="25" cy="25" r="25" fill="white"/>
<path d="M24.9959 15C19.4673 15 15 19.4755 15 24.9959C15 29.2328 17.6327 32.8527 21.3513 34.3089C21.2608 33.5191 21.1868 32.3015 21.3842 31.4377C21.5652 30.6561 22.5524 26.4685 22.5524 26.4685C22.5524 26.4685 22.2563 25.868 22.2563 24.9877C22.2563 23.5973 23.0625 22.5607 24.0662 22.5607C24.9218 22.5607 25.3332 23.2024 25.3332 23.9675C25.3332 24.8231 24.7902 26.1065 24.5023 27.2995C24.2637 28.2949 25.0041 29.1094 25.9831 29.1094C27.7602 29.1094 29.1259 27.2336 29.1259 24.5352C29.1259 22.1411 27.4064 20.471 24.9465 20.471C22.1 20.471 20.4299 22.6018 20.4299 24.8067C20.4299 25.6623 20.7589 26.5837 21.1703 27.0856C21.2526 27.1843 21.2608 27.2748 21.2361 27.3735C21.1621 27.6861 20.9893 28.369 20.9564 28.5088C20.9153 28.6898 20.8083 28.731 20.6191 28.6405C19.385 28.0481 18.6117 26.2217 18.6117 24.7573C18.6117 21.6063 20.8988 18.7104 25.218 18.7104C28.6816 18.7104 31.3801 21.1785 31.3801 24.4858C31.3801 27.9329 29.2081 30.7055 26.197 30.7055C25.1851 30.7055 24.2308 30.1789 23.9099 29.5537C23.9099 29.5537 23.4081 31.4624 23.2847 31.9313C23.0625 32.8034 22.4537 33.8893 22.0424 34.5557C22.9803 34.8437 23.9675 35 25.0041 35C30.5245 35 35 30.5245 35 25.0041C34.9918 19.4755 30.5162 15 24.9959 15Z" fill="black"/>
</svg>
